# Blender v2.72 (sub 0) OBJ File: 'sustavablender10.blend'
# www.blender.org
mtllib miestnost3.mtl
o Cube.034_Cube.050
v -31.829643 19.130680 37.096996
v -31.829643 -7.869320 37.096996
v -31.829643 -7.869320 -12.903005
v -31.829643 19.130680 -12.903005
v 38.170357 19.130680 37.096996
v 38.170357 19.130680 -12.903005
v 38.170357 -7.869320 37.096996
v 38.170357 -7.869320 -12.903005
v -22.283983 2.466309 -12.903005
v -22.283983 15.466309 -12.903005
v -4.283983 15.466309 -12.903005
v -4.283983 2.466309 -12.903005
v -34.139038 21.021446 38.746563
v -34.139038 -9.760087 38.746563
v -34.139038 -9.760087 -14.552573
v -34.139038 21.021446 -14.552573
v 40.479752 21.021446 38.746563
v 40.479752 21.021446 -14.552573
v 40.479752 -9.760087 38.746563
v 40.479752 -9.760087 -14.552573
v -22.283983 2.466309 -15.760148
v -22.283983 15.466309 -15.760148
v -4.283983 15.466309 -15.760148
v -4.283983 2.466309 -15.760148
vt 1.000000 0.000000
vt 1.000000 1.000000
vt 0.000000 1.000000
vt 0.000000 0.000000
vt 0.617199 0.136367
vt 0.135717 0.393509
vt 0.617199 0.393509
vt 0.190268 0.404427
vt 0.190268 0.125449
vt 0.133496 0.125449
vt 0.185475 0.473275
vt 0.185475 0.402703
vt 0.567442 0.402703
vt 0.101857 0.373104
vt 0.101857 0.095589
vt 0.019750 0.095589
vt 0.559052 0.136367
vt 0.559052 0.393509
vt 0.135717 0.136367
vt 0.133496 0.404427
vt 0.567442 0.473275
vt 0.019750 0.373104
vn 0.000000 0.000000 -1.000000
vn -1.000000 0.000000 0.000000
vn 0.000000 1.000000 0.000000
vn 1.000000 0.000000 0.000000
vn 0.000000 -1.000000 0.000000
vn -0.000000 0.000000 1.000000
vn 0.101300 0.000000 0.994900
vn 0.000000 0.098300 0.995200
vn 0.000000 -0.212400 0.977200
vn -0.027000 0.000000 0.999600
usemtl stenaizby2
s off
f 7/1/1 2/2/1 1/3/1
f 8/1/2 7/2/2 5/3/2
f 17/4/1 19/1/1 14/2/1
f 18/4/2 20/1/2 19/2/2
f 5/4/1 7/1/1 1/3/1
f 6/4/2 8/1/2 5/3/2
f 13/3/1 17/4/1 14/2/1
f 17/3/2 18/4/2 19/2/2
usemtl podlahaizby
f 7/1/3 8/2/3 3/3/3
f 14/4/3 19/1/3 20/2/3
f 2/4/3 7/1/3 3/3/3
f 15/3/3 14/4/3 20/2/3
usemtl stenaizby
f 2/1/4 3/2/4 4/3/4
f 1/1/5 4/2/5 6/3/5
f 4/4/6 3/1/6 9/5/6
f 6/3/6 11/6/6 12/7/6
f 13/4/4 14/1/4 15/2/4
f 17/4/5 13/1/5 16/2/5
f 16/4/7 15/1/7 21/5/7
f 24/7/8 21/5/8 15/1/8
f 11/8/5 10/9/5 22/10/5
f 11/11/2 23/12/2 24/13/2
f 9/14/4 21/15/4 22/16/4
f 9/17/3 12/18/3 24/7/3
f 1/4/4 2/1/4 4/3/4
f 5/4/5 1/1/5 6/3/5
f 11/6/6 6/3/6 4/4/6
f 12/7/6 9/5/6 3/1/6
f 10/19/6 11/6/6 4/4/6
f 9/5/6 10/19/6 4/4/6
f 12/7/6 3/1/6 8/2/6
f 8/2/6 6/3/6 12/7/6
f 16/3/4 13/4/4 15/2/4
f 18/3/5 17/4/5 16/2/5
f 23/6/9 18/3/9 16/4/9
f 22/19/7 16/4/7 21/5/7
f 22/19/9 23/6/9 16/4/9
f 18/3/10 23/6/10 24/7/10
f 20/2/10 18/3/10 24/7/10
f 15/1/8 20/2/8 24/7/8
f 23/20/5 11/8/5 22/10/5
f 12/21/2 11/11/2 24/13/2
f 10/22/4 9/14/4 22/16/4
f 21/5/3 9/17/3 24/7/3
