# Blender v2.72 (sub 0) OBJ File: 'sustavablender8.blend'
# www.blender.org
mtllib nadrz.mtl
o Cube.019_Cube.036
v -1.197060 -1.534118 1.245003
v -0.007067 -1.534118 1.245003
v -1.197060 -1.534118 -1.245003
v -0.007067 -1.534118 -1.245003
v -1.233888 -1.534118 1.278575
v -1.233888 -1.530943 1.285000
v -1.237063 -1.530943 1.278575
v -1.233888 -1.533188 1.283118
v -1.235722 -1.532776 1.282284
v -1.236133 -1.530943 1.283118
v -1.236133 -1.533188 1.278575
v -1.233888 -1.534118 -1.278575
v -1.237063 -1.530943 -1.278575
v -1.233888 -1.530943 -1.285000
v -1.236133 -1.533188 -1.278575
v -1.235722 -1.532776 -1.282284
v -1.236133 -1.530943 -1.283118
v -1.233888 -1.533188 -1.283118
v 0.029762 -1.534119 -1.278575
v 0.029762 -1.530943 -1.285000
v 0.032937 -1.530944 -1.278575
v 0.029762 -1.533188 -1.283118
v 0.031595 -1.532776 -1.282284
v 0.032007 -1.530943 -1.283118
v 0.032007 -1.533189 -1.278575
v 0.029762 -1.534119 1.278575
v 0.032937 -1.530944 1.278575
v 0.029762 -1.530943 1.285000
v 0.032007 -1.533189 1.278575
v 0.031595 -1.532776 1.282284
v 0.032007 -1.530943 1.283118
v 0.029762 -1.533188 1.283118
v -1.233888 -0.264118 1.278575
v -1.237063 -0.267293 1.278575
v -1.233888 -0.267293 1.285000
v -1.236133 -0.265048 1.278575
v -1.235722 -0.265460 1.282284
v -1.236133 -0.267293 1.283118
v -1.233888 -0.265048 1.283118
v -1.237063 -0.267293 -1.278575
v -1.233888 -0.264118 -1.278575
v -1.233888 -0.267293 -1.285000
v -1.236133 -0.265048 -1.278575
v -1.235722 -0.265460 -1.282284
v -1.233888 -0.265048 -1.283118
v -1.236133 -0.267293 -1.283118
v 0.029762 -0.267293 -1.285000
v 0.029762 -0.264825 -1.278736
v 0.032937 -0.268057 -1.278575
v 0.029762 -0.265243 -1.283198
v 0.031595 -0.265771 -1.282318
v 0.032007 -0.265783 -1.278655
v 0.032007 -0.267529 -1.283085
v 0.032937 -0.268057 1.278575
v 0.029763 -0.264825 1.278736
v 0.029762 -0.267293 1.285000
v 0.032007 -0.265783 1.278656
v 0.031595 -0.265771 1.282318
v 0.029762 -0.265243 1.283199
v 0.032007 -0.267529 1.283085
v -1.237063 -0.267293 1.245003
v -1.233888 -0.264118 1.245003
v -1.236133 -0.265048 1.245003
v -1.233888 -0.264118 -1.245003
v -1.237063 -0.267293 -1.245003
v -1.236133 -0.265048 -1.245003
v -1.237063 -1.530943 -1.245003
v -1.233888 -1.534118 -1.245003
v -1.236133 -1.533188 -1.245003
v -1.233888 -1.534118 1.245003
v -1.237063 -1.530943 1.245003
v -1.236133 -1.533188 1.245003
v 0.032937 -0.271844 -1.245003
v 0.029781 -0.268273 -1.245003
v 0.032012 -0.269466 -1.245003
v 0.029782 -0.268273 1.245003
v 0.032937 -0.271844 1.245003
v 0.032012 -0.269466 1.245003
v 0.032937 -1.530947 1.245003
v 0.029762 -1.534122 1.245003
v 0.032007 -1.533192 1.245003
v 0.029762 -1.534122 -1.245003
v 0.032937 -1.530947 -1.245003
v 0.032007 -1.533192 -1.245003
v -1.197060 -0.267293 -1.285000
v -1.197060 -0.264118 -1.278575
v -1.197060 -0.265048 -1.283118
v -0.007067 -0.264118 -1.278575
v -0.007067 -0.267293 -1.285000
v -0.007067 -0.265048 -1.283118
v -0.007067 -1.530943 -1.285000
v -0.007067 -1.534118 -1.278575
v -0.007067 -1.533188 -1.283118
v -1.197060 -1.534118 -1.278575
v -1.197060 -1.530943 -1.285000
v -1.197060 -1.533188 -1.283118
v -0.007067 -0.267293 1.285000
v -0.007067 -0.264118 1.278575
v -0.007067 -0.265048 1.283118
v -1.197060 -0.264118 1.278575
v -1.197060 -0.267293 1.285000
v -1.197060 -0.265048 1.283118
v -1.197060 -1.530943 1.285000
v -1.197060 -1.534118 1.278575
v -1.197060 -1.533188 1.283118
v -0.007067 -1.534118 1.278575
v -0.007067 -1.530943 1.285000
v -0.007067 -1.533188 1.283118
v -0.007067 -0.267293 1.238578
v -0.010242 -0.267293 1.245003
v -0.007067 -0.264118 1.251428
v -0.003912 -0.264474 1.245003
v -0.007997 -0.267293 1.243122
v -0.007069 -0.264914 1.245003
v -0.008654 -0.265048 1.246885
v -0.005489 -0.264296 1.248216
v -0.006143 -0.265152 1.241791
v -1.197060 -0.264118 1.251428
v -1.193885 -0.267293 1.245003
v -1.197060 -0.267293 1.238578
v -1.200235 -0.264118 1.245003
v -1.195473 -0.265048 1.246885
v -1.197060 -0.264871 1.245003
v -1.196130 -0.267293 1.243122
v -1.197990 -0.265048 1.241791
v -1.198647 -0.264118 1.248216
v -0.007067 -0.264118 -1.251428
v -0.010242 -0.267293 -1.245003
v -0.007067 -0.267293 -1.238578
v -0.003912 -0.264474 -1.245003
v -0.008654 -0.265048 -1.246885
v -0.007069 -0.264914 -1.245003
v -0.007997 -0.267293 -1.243122
v -0.006143 -0.265152 -1.241791
v -0.005489 -0.264296 -1.248216
v -1.197060 -0.267293 -1.238578
v -1.193885 -0.267293 -1.245003
v -1.197060 -0.264118 -1.251428
v -1.200235 -0.264118 -1.245003
v -1.196130 -0.267293 -1.243122
v -1.197060 -0.264871 -1.245003
v -1.195473 -0.265048 -1.246885
v -1.198647 -0.264118 -1.248216
v -1.197990 -0.265048 -1.241791
v -0.010242 -1.494118 1.238578
v -0.010242 -1.490943 1.245003
v -0.007067 -1.490943 1.238578
v -0.010242 -1.493188 1.243122
v -0.008237 -1.492947 1.242635
v -0.007997 -1.490943 1.243122
v -0.007997 -1.493188 1.238578
v -1.197060 -1.490943 1.238578
v -1.193885 -1.490943 1.245003
v -1.193885 -1.494118 1.238578
v -1.196130 -1.490943 1.243122
v -1.195890 -1.492948 1.242635
v -1.193885 -1.493188 1.243122
v -1.196130 -1.493188 1.238578
v -0.007067 -1.490943 -1.238578
v -0.010242 -1.490943 -1.245003
v -0.010242 -1.494118 -1.238578
v -0.007997 -1.490943 -1.243122
v -0.008237 -1.492948 -1.242635
v -0.010242 -1.493188 -1.243122
v -0.007997 -1.493188 -1.238578
v -1.193885 -1.494118 -1.238578
v -1.193885 -1.490943 -1.245003
v -1.197060 -1.490943 -1.238578
v -1.193885 -1.493188 -1.243122
v -1.195890 -1.492947 -1.242635
v -1.196130 -1.490943 -1.243122
v -1.196130 -1.493188 -1.238578
v -0.008237 -1.492947 1.242635
v -0.008237 -1.492947 1.242635
v -1.195890 -1.492948 1.242635
v -1.195890 -1.492948 1.242635
v -0.008237 -1.492948 -1.242635
v -0.008237 -1.492948 -1.242635
v -1.195890 -1.492947 -1.242635
v -1.195890 -1.492947 -1.242635
vn 0.978800 0.189700 -0.076700
vn 0.983900 0.178100 0.009400
vn 0.980800 -0.195100 0.000000
vn 0.000000 0.341700 0.939800
vn 0.000000 -0.341700 0.939800
vn 0.302300 -0.302300 0.904000
vn -0.191900 0.976500 0.097800
vn 0.000000 0.994900 0.100800
vn 0.030400 0.998000 -0.054400
vn 0.000000 0.341700 -0.939800
vn 0.000000 -0.341700 -0.939800
vn -0.302300 -0.302300 -0.904000
vn 0.311200 0.315300 -0.896500
vn 0.302300 -0.302300 -0.904000
vn 0.219200 0.975600 -0.006100
vn 0.006300 0.995100 -0.098500
vn 0.009700 0.997600 0.068400
vn -0.195100 -0.980800 0.000000
vn 0.000000 -1.000000 0.000000
vn 0.000000 -0.994900 0.100800
vn 0.117100 0.992400 0.038200
vn -0.195100 0.980800 0.000000
vn 0.000000 -0.994900 -0.100800
vn 0.191900 -0.976500 -0.097800
vn 0.294900 0.954400 0.046100
vn -0.007700 0.999200 0.039400
vn -0.007700 0.999200 -0.039400
vn 0.978800 0.189600 0.076800
vn 0.976500 -0.191900 0.097800
vn 0.115700 0.991600 0.057600
vn -0.191900 -0.976500 -0.097800
vn 0.000000 0.994900 -0.100800
vn 0.030400 0.998000 0.054400
vn 0.195000 -0.980800 0.000000
vn 0.191900 -0.976500 0.097800
vn 0.009700 0.997600 -0.068400
vn -0.976500 0.191900 -0.097800
vn -0.976500 -0.191900 -0.097800
vn -0.980800 -0.195100 0.000000
vn 0.294900 0.954400 -0.046100
vn -0.012500 0.998000 -0.060800
vn -0.302300 0.302300 0.904000
vn -0.302300 -0.302300 0.904000
vn -0.970500 0.228500 0.075900
vn -0.976500 0.191900 0.097800
vn 0.983900 0.178100 -0.009400
vn -0.980800 0.195100 0.000000
vn 0.282300 0.415900 0.864400
vn 0.287600 0.287600 0.913500
vn -0.287600 0.287600 0.913500
vn -0.282300 0.415900 -0.864500
vn -0.287600 0.287600 -0.913500
vn 0.287600 0.287600 -0.913500
vn 0.191900 0.976500 0.097800
vn 0.191900 0.976500 -0.097800
vn 0.972300 0.221100 -0.076100
vn 0.976500 0.191900 -0.097800
vn 0.976500 0.191900 0.097800
vn -0.202000 -0.833700 0.513900
vn -0.663900 -0.663900 0.344200
vn -0.704000 -0.704000 0.093200
vn -0.833700 -0.202000 0.513900
vn -0.704000 -0.704000 -0.093200
vn -0.663900 -0.663800 -0.344200
vn -0.202000 -0.833700 -0.513900
vn -0.833700 -0.202000 -0.513900
vn 0.202000 -0.833700 -0.513900
vn 0.663900 -0.663800 -0.344300
vn 0.704000 -0.704000 -0.093300
vn 0.833700 -0.202000 -0.513900
vn 0.704000 -0.704000 0.093300
vn 0.663900 -0.663800 0.344300
vn 0.202000 -0.833700 0.513900
vn 0.833700 -0.202000 0.513900
vn -0.704000 0.704000 0.093200
vn -0.663900 0.663800 0.344200
vn -0.202000 0.833700 0.513900
vn -0.833700 0.202000 0.513900
vn -0.704000 0.704000 -0.093200
vn -0.663900 0.663900 -0.344200
vn -0.833700 0.202000 -0.513900
vn -0.202000 0.833700 -0.513900
vn -0.302300 0.302300 -0.904000
vn 0.225100 0.858600 -0.460600
vn 0.678400 0.675600 -0.288500
vn 0.713300 0.700600 -0.018000
vn 0.845900 0.197200 -0.495400
vn 0.713400 0.700500 0.018100
vn 0.678500 0.675600 0.288500
vn 0.845900 0.197100 0.495500
vn 0.225200 0.858500 0.460600
vn 0.311200 0.315200 0.896500
vn -0.970500 0.228500 -0.075900
vn -0.841000 0.328600 -0.429800
vn -0.420900 0.871800 -0.250400
vn -0.205500 0.910600 -0.358500
vn -0.512600 0.850600 -0.116900
vn 0.213900 0.909300 -0.356900
vn 0.461700 0.852400 -0.245500
vn 0.842200 0.325500 -0.429700
vn 0.570100 0.813800 -0.112700
vn 0.115700 0.991600 -0.057600
vn -0.205400 0.910600 0.358500
vn -0.420900 0.871800 0.250400
vn -0.841000 0.328600 0.429800
vn -0.512600 0.850600 0.116900
vn -0.012500 0.998000 0.060800
vn 0.972300 0.221100 0.076100
vn 0.842200 0.325500 0.429700
vn 0.461700 0.852400 0.245500
vn 0.213900 0.909300 0.356900
vn 0.570100 0.813800 0.112700
vn -0.126200 0.854500 -0.503900
vn -0.134800 0.988600 -0.066600
vn -0.704500 0.704500 -0.085100
vn -0.854500 0.126200 -0.503900
vn -0.453400 0.453400 -0.767400
vn -0.988600 0.134800 -0.066600
vn 0.854500 0.126200 -0.503900
vn 0.988700 0.134600 -0.066600
vn 0.704500 0.704500 -0.085100
vn 0.126200 0.854500 -0.503900
vn 0.453400 0.453400 -0.767400
vn 0.134800 0.988600 -0.066600
vn -0.854500 0.126200 0.503900
vn -0.988600 0.134800 0.066600
vn -0.704600 0.704500 0.085100
vn -0.126200 0.854500 0.503900
vn -0.453400 0.453400 0.767400
vn -0.134800 0.988600 0.066600
vn 0.126200 0.854500 0.503900
vn 0.134800 0.988600 0.066600
vn 0.704600 0.704500 0.085100
vn 0.854500 0.126200 0.503900
vn 0.453400 0.453400 0.767400
vn 0.988700 0.134700 0.066600
vn -0.191900 0.976500 -0.097800
vn -0.707100 0.707100 0.000000
vn -0.191900 -0.976500 0.097800
vn -0.707100 -0.707100 0.000000
vn -0.976500 -0.191900 0.097800
vn 0.001300 0.859300 -0.511400
vn 0.976500 -0.191900 -0.097800
vn 0.000000 -0.858900 -0.512000
vn 0.219300 0.975600 0.006100
vn 0.753300 0.656700 -0.034200
vn 0.707100 -0.707100 -0.000000
vn 0.000000 0.858900 0.512000
vn 0.000000 -0.858900 0.512000
vn 0.753300 0.656800 0.034200
vn 0.000000 0.858900 -0.512000
vn 0.006300 0.995100 0.098500
vn 0.001300 0.859300 0.511400
vn 0.282300 0.415900 -0.864400
vn -0.282300 0.415900 0.864400
vn 0.117100 0.992400 -0.038200
usemtl Sklo2
s 1
f 49//1 73//2 83//3
f 97//4 107//5 28//6
f 33//7 100//8 118//9
f 85//10 95//11 14//12
f 47//13 20//14 91//11
f 48//15 88//16 127//17
f 70//18 1//19 104//20
f 139//21 64//22 62//22
f 4//19 92//23 19//24
f 74//25 130//26 112//27
f 54//28 27//29 79//3
f 89//10 91//11 95//11
f 64//22 139//21 143//30
f 68//18 3//19 1//19
f 12//31 94//23 3//19
f 88//16 86//32 138//33
f 2//19 80//34 26//35
f 111//36 118//9 100//8
f 40//37 13//38 67//39
f 101//4 103//5 107//5
f 76//40 112//27 116//41
f 94//23 92//23 4//19
f 35//42 6//43 103//5
f 129//44 159//45 147//37
f 77//46 79//3 83//3
f 3//19 4//19 2//19
f 65//47 67//39 71//39
f 1//19 2//19 106//20
f 4//19 82//34 80//34
f 137//48 167//49 160//50
f 110//51 146//52 153//53
f 161//7 166//54 154//55
f 120//56 152//57 168//58
f 8//59 9//60 11//61
f 6//43 10//62 9//60
f 11//61 9//60 10//62
f 15//63 16//64 18//65
f 17//66 16//64 15//63
f 14//12 18//65 16//64
f 22//67 23//68 25//69
f 20//14 24//70 23//68
f 25//69 23//68 24//70
f 29//71 30//72 32//73
f 31//74 30//72 29//71
f 28//6 32//73 30//72
f 36//75 37//76 39//77
f 38//78 37//76 36//75
f 35//42 39//77 37//76
f 43//79 44//80 46//81
f 45//82 44//80 43//79
f 42//83 46//81 44//80
f 47//13 50//84 51//85
f 52//86 51//85 50//84
f 53//87 51//85 52//86
f 57//88 58//89 60//90
f 59//91 58//89 57//88
f 56//92 60//90 58//89
f 109//93 113//94 114//95
f 115//96 114//95 113//94
f 111//36 116//41 114//95
f 117//97 114//95 116//41
f 118//9 122//98 123//99
f 124//100 123//99 122//98
f 120//56 125//101 123//99
f 126//102 123//99 125//101
f 127//17 131//103 132//104
f 133//105 132//104 131//103
f 129//44 134//106 132//104
f 135//107 132//104 134//106
f 136//108 140//109 141//110
f 142//111 141//110 140//109
f 138//33 143//30 141//110
f 144//112 141//110 143//30
f 148//113 149//114 151//115
f 146//52 150//116 173//117
f 151//115 174//118 150//116
f 155//119 156//120 158//121
f 153//53 157//122 175//123
f 158//121 176//124 157//122
f 162//125 163//126 165//127
f 160//50 164//128 177//129
f 165//127 178//130 164//128
f 169//131 170//132 172//133
f 167//49 171//134 179//135
f 172//133 180//136 171//134
f 35//42 38//78 10//62
f 10//62 38//78 34//45
f 41//137 43//79 66//138
f 43//79 40//37 65//47
f 14//12 17//66 46//81
f 46//81 17//66 13//38
f 5//139 11//61 72//140
f 11//61 7//141 71//39
f 88//16 48//15 50//84
f 90//142 50//84 47//13
f 21//143 24//70 53//87
f 24//70 20//14 47//13
f 12//31 18//65 96//144
f 18//65 14//12 95//11
f 55//145 57//88 78//146
f 57//88 54//28 77//46
f 56//92 28//6 31//74
f 60//90 31//74 27//29
f 82//34 19//24 25//69
f 84//147 25//69 21//143
f 33//7 39//77 102//148
f 39//77 35//42 101//4
f 26//35 32//73 108//149
f 32//73 28//6 107//5
f 62//22 63//138 36//75
f 63//138 61//47 34//45
f 64//22 66//138 63//138
f 66//138 65//47 61//47
f 68//18 69//140 15//63
f 69//140 67//39 13//38
f 70//18 72//140 69//140
f 72//140 71//39 67//39
f 48//15 74//25 75//150
f 52//86 75//150 73//2
f 74//25 76//40 78//146
f 78//146 77//46 73//2
f 80//34 81//147 29//71
f 81//147 79//3 27//29
f 82//34 84//147 81//147
f 84//147 83//3 79//3
f 86//32 87//151 45//82
f 87//151 85//10 42//83
f 88//16 90//142 87//151
f 90//142 89//10 85//10
f 19//24 92//23 93//144
f 22//67 93//144 91//11
f 94//23 96//144 93//144
f 96//144 95//11 91//11
f 98//152 99//153 59//91
f 99//153 97//4 56//92
f 100//8 102//148 99//153
f 102//148 101//4 97//4
f 104//20 105//149 8//59
f 105//149 103//5 6//43
f 106//20 108//149 105//149
f 108//149 107//5 103//5
f 119//154 122//98 115//96
f 122//98 118//9 111//36
f 138//33 142//111 131//103
f 142//111 137//48 128//155
f 109//93 117//97 134//106
f 134//106 117//97 112//27
f 121//156 125//101 144//112
f 125//101 120//56 136//108
f 154//55 157//122 148//113
f 148//113 157//122 153//53
f 160//50 167//49 169//131
f 169//131 166//54 161//7
f 145//137 151//115 165//127
f 151//115 147//37 159//45
f 152//57 158//121 172//133
f 172//133 158//121 154//55
f 167//49 137//48 140//109
f 171//134 140//109 136//108
f 153//53 155//119 124//100
f 155//119 152//57 120//56
f 110//51 113//94 150//116
f 113//94 109//93 147//37
f 160//50 162//125 133//105
f 162//125 159//45 129//44
f 61//47 71//39 7//141
f 21//143 49//1 83//3
f 56//92 97//4 28//6
f 118//9 126//102 62//22
f 126//102 121//156 62//22
f 89//10 47//13 91//11
f 42//83 85//10 14//12
f 33//7 118//9 62//22
f 135//107 130//26 74//25
f 121//156 139//21 62//22
f 127//17 135//107 74//25
f 5//139 70//18 104//20
f 48//15 127//17 74//25
f 82//34 4//19 19//24
f 76//40 74//25 112//27
f 77//46 54//28 79//3
f 85//10 89//10 95//11
f 68//18 12//31 3//19
f 138//33 86//32 41//137
f 138//33 64//22 143//30
f 70//18 68//18 1//19
f 138//33 41//137 64//22
f 127//17 88//16 138//33
f 106//20 2//19 26//35
f 98//152 111//36 100//8
f 65//47 40//37 67//39
f 97//4 101//4 107//5
f 111//36 98//152 55//145
f 111//36 76//40 116//41
f 101//4 35//42 103//5
f 3//19 94//23 4//19
f 111//36 55//145 76//40
f 109//93 129//44 147//37
f 73//2 77//46 83//3
f 1//19 3//19 2//19
f 61//47 65//47 71//39
f 104//20 1//19 106//20
f 2//19 4//19 80//34
f 128//155 137//48 160//50
f 119//154 110//51 153//53
f 145//137 161//7 154//55
f 136//108 120//56 168//58
f 5//139 8//59 11//61
f 8//59 6//43 9//60
f 7//141 11//61 10//62
f 12//31 15//63 18//65
f 13//38 17//66 15//63
f 17//66 14//12 16//64
f 19//24 22//67 25//69
f 22//67 20//14 23//68
f 21//143 25//69 24//70
f 26//35 29//71 32//73
f 27//29 31//74 29//71
f 31//74 28//6 30//72
f 33//7 36//75 39//77
f 34//45 38//78 36//75
f 38//78 35//42 37//76
f 40//37 43//79 46//81
f 41//137 45//82 43//79
f 45//82 42//83 44//80
f 53//87 47//13 51//85
f 48//15 52//86 50//84
f 49//1 53//87 52//86
f 54//28 57//88 60//90
f 55//145 59//91 57//88
f 59//91 56//92 58//89
f 117//97 109//93 114//95
f 110//51 115//96 113//94
f 115//96 111//36 114//95
f 112//27 117//97 116//41
f 126//102 118//9 123//99
f 119//154 124//100 122//98
f 124//100 120//56 123//99
f 121//156 126//102 125//101
f 135//107 127//17 132//104
f 128//155 133//105 131//103
f 133//105 129//44 132//104
f 130//26 135//107 134//106
f 144//112 136//108 141//110
f 137//48 142//111 140//109
f 142//111 138//33 141//110
f 139//21 144//112 143//30
f 145//137 148//113 151//115
f 148//113 146//52 173//117
f 147//37 151//115 150//116
f 152//57 155//119 158//121
f 155//119 153//53 175//123
f 154//55 158//121 157//122
f 159//45 162//125 165//127
f 162//125 160//50 177//129
f 161//7 165//127 164//128
f 166//54 169//131 172//133
f 169//131 167//49 179//135
f 168//58 172//133 171//134
f 6//43 35//42 10//62
f 7//141 10//62 34//45
f 64//22 41//137 66//138
f 66//138 43//79 65//47
f 42//83 14//12 46//81
f 40//37 46//81 13//38
f 70//18 5//139 72//140
f 72//140 11//61 71//39
f 90//142 88//16 50//84
f 89//10 90//142 47//13
f 49//1 21//143 53//87
f 53//87 24//70 47//13
f 94//23 12//31 96//144
f 96//144 18//65 95//11
f 76//40 55//145 78//146
f 78//146 57//88 77//46
f 60//90 56//92 31//74
f 54//28 60//90 27//29
f 84//147 82//34 25//69
f 83//3 84//147 21//143
f 100//8 33//7 102//148
f 102//148 39//77 101//4
f 106//20 26//35 108//149
f 108//149 32//73 107//5
f 33//7 62//22 36//75
f 36//75 63//138 34//45
f 62//22 64//22 63//138
f 63//138 66//138 61//47
f 12//31 68//18 15//63
f 15//63 69//140 13//38
f 68//18 70//18 69//140
f 69//140 72//140 67//39
f 52//86 48//15 75//150
f 49//1 52//86 73//2
f 75//150 74//25 78//146
f 75//150 78//146 73//2
f 26//35 80//34 29//71
f 29//71 81//147 27//29
f 80//34 82//34 81//147
f 81//147 84//147 79//3
f 41//137 86//32 45//82
f 45//82 87//151 42//83
f 86//32 88//16 87//151
f 87//151 90//142 85//10
f 22//67 19//24 93//144
f 20//14 22//67 91//11
f 92//23 94//23 93//144
f 93//144 96//144 91//11
f 55//145 98//152 59//91
f 59//91 99//153 56//92
f 98//152 100//8 99//153
f 99//153 102//148 97//4
f 5//139 104//20 8//59
f 8//59 105//149 6//43
f 104//20 106//20 105//149
f 105//149 108//149 103//5
f 110//51 119//154 115//96
f 115//96 122//98 111//36
f 127//17 138//33 131//103
f 131//103 142//111 128//155
f 129//44 109//93 134//106
f 130//26 134//106 112//27
f 139//21 121//156 144//112
f 144//112 125//101 136//108
f 145//137 154//55 148//113
f 146//52 148//113 153//53
f 164//128 160//50 169//131
f 164//128 169//131 161//7
f 161//7 145//137 165//127
f 165//127 151//115 159//45
f 168//58 152//57 172//133
f 166//54 172//133 154//55
f 171//134 167//49 140//109
f 168//58 171//134 136//108
f 119//154 153//53 124//100
f 124//100 155//119 120//56
f 146//52 110//51 150//116
f 150//116 113//94 147//37
f 128//155 160//50 133//105
f 133//105 162//125 129//44
f 34//45 61//47 7//141
