# Blender v2.72 (sub 0) OBJ File: 'sustavablender13.blend'
# www.blender.org
mtllib voda.mtl
o Cylinder.087_Cylinder.114
v 0.300000 0.000151 0.040860
v 0.300000 3.000151 0.040860
v 0.347797 0.000151 0.045567
v 0.347797 3.000151 0.045567
v 0.393757 0.000151 0.059509
v 0.393757 3.000151 0.059509
v 0.436115 0.000151 0.082150
v 0.436115 3.000151 0.082150
v 0.473241 0.000151 0.112618
v 0.473241 3.000151 0.112618
v 0.503710 0.000151 0.149745
v 0.503710 3.000151 0.149745
v 0.526350 0.000151 0.192102
v 0.526350 3.000151 0.192102
v 0.540292 0.000151 0.238062
v 0.540292 3.000151 0.238062
v 0.545000 0.000151 0.285860
v 0.545000 3.000151 0.285860
v 0.540292 0.000151 0.333657
v 0.540292 3.000151 0.333657
v 0.526350 0.000151 0.379617
v 0.526350 3.000151 0.379617
v 0.503710 0.000151 0.421974
v 0.503710 3.000151 0.421974
v 0.473241 0.000151 0.459101
v 0.473241 3.000151 0.459101
v 0.436115 0.000151 0.489570
v 0.436115 3.000151 0.489570
v 0.393757 0.000151 0.512210
v 0.393757 3.000151 0.512210
v 0.347797 0.000151 0.526152
v 0.347797 3.000151 0.526152
v 0.300000 0.000151 0.530860
v 0.300000 3.000151 0.530860
v 0.252203 0.000151 0.526152
v 0.252203 3.000151 0.526152
v 0.206242 0.000151 0.512210
v 0.206242 3.000151 0.512210
v 0.163885 0.000151 0.489570
v 0.163885 3.000151 0.489570
v 0.126759 0.000151 0.459101
v 0.126759 3.000151 0.459101
v 0.096290 0.000151 0.421974
v 0.096290 3.000151 0.421974
v 0.073649 0.000151 0.379617
v 0.073649 3.000151 0.379617
v 0.059708 0.000151 0.333656
v 0.059708 3.000151 0.333656
v 0.055000 0.000151 0.285859
v 0.055000 3.000151 0.285859
v 0.059708 0.000151 0.238062
v 0.059708 3.000151 0.238062
v 0.073650 0.000151 0.192102
v 0.073650 3.000151 0.192102
v 0.096290 0.000151 0.149745
v 0.096290 3.000151 0.149745
v 0.126759 0.000151 0.112618
v 0.126759 3.000151 0.112618
v 0.163886 0.000151 0.082149
v 0.163886 3.000151 0.082149
v 0.206243 0.000151 0.059509
v 0.206243 3.000151 0.059509
v 0.252203 0.000151 0.045567
v 0.252203 3.000151 0.045567
v 0.300000 0.000151 0.040860
v 0.347797 0.000151 0.045567
v 0.347797 3.000151 0.045567
v 0.300000 3.000151 0.040860
v 0.393757 0.000151 0.059509
v 0.393757 3.000151 0.059509
v 0.436115 0.000151 0.082150
v 0.436115 3.000151 0.082150
v 0.473241 0.000151 0.112618
v 0.473241 3.000151 0.112618
v 0.503710 0.000151 0.149745
v 0.503710 3.000151 0.149745
v 0.526350 0.000151 0.192102
v 0.526350 3.000151 0.192102
v 0.540292 0.000151 0.238062
v 0.540292 3.000151 0.238062
v 0.545000 0.000151 0.285860
v 0.545000 3.000151 0.285860
v 0.540292 0.000151 0.333657
v 0.540292 3.000151 0.333657
v 0.526350 0.000151 0.379617
v 0.526350 3.000151 0.379617
v 0.503710 0.000151 0.421974
v 0.503710 3.000151 0.421974
v 0.473241 0.000151 0.459101
v 0.473241 3.000151 0.459101
v 0.436115 0.000151 0.489570
v 0.436115 3.000151 0.489570
v 0.393757 0.000151 0.512210
v 0.393757 3.000151 0.512210
v 0.347797 0.000151 0.526152
v 0.347797 3.000151 0.526152
v 0.300000 0.000151 0.530860
v 0.300000 3.000151 0.530860
v 0.252203 0.000151 0.526152
v 0.252203 3.000151 0.526152
v 0.206242 0.000151 0.512210
v 0.206242 3.000151 0.512210
v 0.163885 0.000151 0.489570
v 0.163885 3.000151 0.489570
v 0.126759 0.000151 0.459101
v 0.126759 3.000151 0.459101
v 0.096290 0.000151 0.421974
v 0.096290 3.000151 0.421974
v 0.073649 0.000151 0.379617
v 0.073649 3.000151 0.379617
v 0.059708 0.000151 0.333656
v 0.059708 3.000151 0.333656
v 0.055000 0.000151 0.285859
v 0.055000 3.000151 0.285859
v 0.059708 0.000151 0.238062
v 0.059708 3.000151 0.238062
v 0.073650 0.000151 0.192102
v 0.073650 3.000151 0.192102
v 0.096290 0.000151 0.149745
v 0.096290 3.000151 0.149745
v 0.126759 0.000151 0.112618
v 0.126759 3.000151 0.112618
v 0.163886 0.000151 0.082149
v 0.163886 3.000151 0.082149
v 0.206243 0.000151 0.059509
v 0.206243 3.000151 0.059509
v 0.252203 0.000151 0.045567
v 0.252203 3.000151 0.045567
vt 0.849075 0.274168
vt 0.853748 0.274168
vt 0.853748 0.466836
vt 0.858330 0.274168
vt 0.858330 0.466836
vt 0.862647 0.274168
vt 0.862647 0.466836
vt 0.940466 0.466836
vt 0.935883 0.466836
vt 0.935883 0.274168
vt 0.931211 0.466836
vt 0.931211 0.274168
vt 0.926628 0.466836
vt 0.926628 0.274168
vt 0.840176 0.274168
vt 0.840176 0.466836
vt 0.835860 0.466836
vt 0.831277 0.466836
vt 0.831277 0.274168
vt 0.826605 0.466836
vt 0.826605 0.274168
vt 0.822023 0.466836
vt 0.817706 0.466836
vt 0.817706 0.274168
vt 0.912791 0.466836
vt 0.908209 0.466836
vt 0.908209 0.274168
vt 0.903537 0.466836
vt 0.903537 0.274168
vt 0.898954 0.466836
vt 0.898954 0.274168
vt 0.912791 0.274168
vt 0.917374 0.274168
vt 0.917374 0.466836
vt 0.922046 0.274168
vt 0.894638 0.466836
vt 0.894638 0.274168
vt 0.890055 0.466836
vt 0.885383 0.466836
vt 0.885383 0.274168
vt 0.880800 0.466836
vt 0.880800 0.274168
vt 0.813389 0.466836
vt 0.813389 0.274168
vt 0.808807 0.466836
vt 0.808807 0.274168
vt 0.804135 0.466836
vt 0.799552 0.466836
vt 0.799552 0.274168
vt 0.795236 0.466836
vt 0.795236 0.274168
vt 0.876218 0.466836
vt 0.876218 0.274168
vt 0.871546 0.466836
vt 0.871546 0.274168
vt 0.866963 0.466836
vt 0.866963 0.274168
vt 0.630918 0.206507
vt 0.582092 0.873911
vt 0.086353 0.808177
vt 0.844493 0.274168
vt 0.849075 0.466836
vt 0.844493 0.466836
vt 0.938761 0.718274
vt 0.884437 0.685427
vt 0.913474 0.623977
vt 0.940466 0.274168
vt 0.835860 0.274168
vt 0.822023 0.274168
vt 0.922046 0.466836
vt 0.890055 0.274168
vt 0.804135 0.274168
vt 0.524679 0.089126
vt 0.582092 0.140773
vt 0.393161 0.035415
vt 0.460885 0.053551
vt 0.256387 0.053551
vt 0.324111 0.035415
vt 0.135180 0.140772
vt 0.192593 0.089125
vt 0.008095 0.460860
vt 0.086354 0.206506
vt 0.047991 0.283800
vt 0.021566 0.369685
vt 0.021566 0.644997
vt 0.008095 0.553822
vt 0.047991 0.730882
vt 0.135179 0.873911
vt 0.324110 0.979268
vt 0.256387 0.961132
vt 0.192592 0.925557
vt 0.460884 0.961132
vt 0.393161 0.979268
vt 0.524679 0.925558
vt 0.709176 0.553822
vt 0.630918 0.808177
vt 0.669280 0.730883
vt 0.695705 0.644998
vt 0.695705 0.369686
vt 0.709176 0.460861
vt 0.669280 0.283801
vt 0.905585 0.627673
vt 0.887704 0.647899
vt 0.892448 0.639868
vt 0.898486 0.633039
vt 0.882771 0.666296
vt 0.884437 0.656823
vt 0.882771 0.675954
vt 0.921848 0.720158
vt 0.887704 0.694351
vt 0.892448 0.702382
vt 0.898486 0.709211
vt 0.905585 0.714577
vt 0.913474 0.718274
vt 0.930387 0.720158
vt 0.959787 0.702382
vt 0.946650 0.714577
vt 0.969464 0.675954
vt 0.967798 0.685427
vt 0.964531 0.694351
vt 0.964531 0.647899
vt 0.969464 0.666296
vt 0.967798 0.656823
vt 0.946650 0.627673
vt 0.953749 0.633039
vt 0.959787 0.639868
vt 0.938761 0.623977
vt 0.953749 0.709211
vt 0.921848 0.622092
vt 0.930387 0.622092
vn 0.000000 0.000000 -1.000000
vn 0.195100 0.000000 -0.980800
vn 0.382700 0.000000 -0.923900
vn 0.555600 0.000000 -0.831500
vn 0.707100 0.000000 -0.707100
vn 0.831500 0.000000 -0.555600
vn 0.923900 0.000000 -0.382700
vn 0.980800 0.000000 -0.195100
vn 1.000000 0.000000 -0.000000
vn 0.980800 0.000000 0.195100
vn 0.923900 0.000000 0.382700
vn 0.831500 0.000000 0.555600
vn 0.707100 0.000000 0.707100
vn 0.555600 0.000000 0.831500
vn 0.382700 0.000000 0.923900
vn 0.195100 0.000000 0.980800
vn -0.000000 0.000000 1.000000
vn -0.195100 0.000000 0.980800
vn -0.382700 0.000000 0.923900
vn -0.555600 0.000000 0.831500
vn -0.707100 0.000000 0.707100
vn -0.831500 0.000000 0.555600
vn -0.923900 0.000000 0.382700
vn -0.980800 0.000000 0.195100
vn -1.000000 0.000000 -0.000000
vn -0.980800 0.000000 -0.195100
vn -0.923900 0.000000 -0.382700
vn -0.831500 0.000000 -0.555600
vn -0.707100 0.000000 -0.707100
vn -0.555600 0.000000 -0.831500
vn -0.382700 0.000000 -0.923900
vn 0.000000 1.000000 0.000000
vn -0.195100 0.000000 -0.980800
vn 0.000000 -1.000000 0.000000
vn 0.000000 1.000000 0.000100
vn 0.000000 1.000000 -0.000100
usemtl uvmap
s 1
f 2/1/1 4/2/2 3/3/2
f 4/2/2 6/4/3 5/5/3
f 6/4/3 8/6/4 7/7/4
f 8/8/4 10/9/5 9/10/5
f 10/9/5 12/11/6 11/12/6
f 12/11/6 14/13/7 13/14/7
f 13/15/7 14/16/7 16/17/8
f 16/17/8 18/18/9 17/19/9
f 18/18/9 20/20/10 19/21/10
f 19/21/10 20/20/10 22/22/11
f 22/22/11 24/23/12 23/24/12
f 24/25/12 26/26/13 25/27/13
f 26/26/13 28/28/14 27/29/14
f 28/28/14 30/30/15 29/31/15
f 30/32/15 32/33/16 31/34/16
f 31/34/16 32/33/16 34/35/17
f 34/35/17 36/14/18 35/13/18
f 36/30/18 38/36/19 37/37/19
f 37/37/19 38/36/19 40/38/20
f 40/38/20 42/39/21 41/40/21
f 42/39/21 44/41/22 43/42/22
f 44/23/22 46/43/23 45/44/23
f 46/43/23 48/45/24 47/46/24
f 47/46/24 48/45/24 50/47/25
f 50/47/25 52/48/26 51/49/26
f 52/48/26 54/50/27 53/51/27
f 54/41/27 56/52/28 55/53/28
f 56/52/28 58/54/29 57/55/29
f 58/54/29 60/56/30 59/57/30
f 60/56/30 62/7/31 61/6/31
f 67/58/32 116/59/32 100/60/32
f 128/61/33 2/1/1 1/62/1
f 62/15/31 128/61/33 63/63/33
f 97/64/34 113/65/34 65/66/34
f 1/62/1 2/1/1 3/3/2
f 3/3/2 4/2/2 5/5/3
f 5/5/3 6/4/3 7/7/4
f 7/67/4 8/8/4 9/10/5
f 9/10/5 10/9/5 11/12/6
f 11/12/6 12/11/6 13/14/7
f 15/68/8 13/15/7 16/17/8
f 15/68/8 16/17/8 17/19/9
f 17/19/9 18/18/9 19/21/10
f 21/69/11 19/21/10 22/22/11
f 21/69/11 22/22/11 23/24/12
f 23/32/12 24/25/12 25/27/13
f 25/27/13 26/26/13 27/29/14
f 27/29/14 28/28/14 29/31/15
f 29/25/15 30/32/15 31/34/16
f 33/70/17 31/34/16 34/35/17
f 33/70/17 34/35/17 35/13/18
f 35/31/18 36/30/18 37/37/19
f 39/71/20 37/37/19 40/38/20
f 39/71/20 40/38/20 41/40/21
f 41/40/21 42/39/21 43/42/22
f 43/24/22 44/23/22 45/44/23
f 45/44/23 46/43/23 47/46/24
f 49/72/25 47/46/24 50/47/25
f 49/72/25 50/47/25 51/49/26
f 51/49/26 52/48/26 53/51/27
f 53/42/27 54/41/27 55/53/28
f 55/53/28 56/52/28 57/55/29
f 57/55/29 58/54/29 59/57/30
f 59/57/30 60/56/30 61/6/31
f 72/73/32 70/74/32 67/58/32
f 76/75/32 74/76/32 72/73/32
f 80/77/32 78/78/32 76/75/32
f 84/79/32 82/80/32 80/77/32
f 84/79/32 92/81/32 86/82/32
f 88/83/35 86/82/32 90/84/32
f 96/85/32 94/86/32 92/81/32
f 96/85/32 92/81/32 98/87/32
f 100/60/32 116/59/32 102/88/32
f 108/89/32 106/90/32 104/91/32
f 112/92/32 110/93/32 108/89/32
f 116/59/32 114/94/32 112/92/32
f 116/59/32 124/95/32 118/96/32
f 120/97/36 118/96/32 122/98/32
f 64/99/32 126/100/35 124/95/32
f 67/58/32 68/101/32 64/99/32
f 67/58/32 80/77/32 72/73/32
f 116/59/32 104/91/32 102/88/32
f 86/82/32 92/81/32 90/84/32
f 61/16/31 62/15/31 63/63/33
f 92/81/32 100/60/32 98/87/32
f 116/59/32 112/92/32 108/89/32
f 118/96/32 124/95/32 122/98/32
f 67/58/32 64/99/32 124/95/32
f 80/77/32 76/75/32 72/73/32
f 100/60/32 92/81/32 84/79/32
f 67/58/32 84/79/32 80/77/32
f 67/58/32 124/95/32 116/59/32
f 100/60/32 84/79/32 67/58/32
f 63/63/33 128/61/33 1/62/1
f 116/59/32 108/89/32 104/91/32
f 127/102/34 121/103/34 123/104/34
f 125/105/34 127/102/34 123/104/34
f 117/106/34 119/107/34 121/103/34
f 117/106/34 121/103/34 115/108/34
f 113/65/34 101/109/34 111/110/34
f 109/111/34 111/110/34 107/112/34
f 105/113/34 107/112/34 103/114/34
f 97/64/34 99/115/34 101/109/34
f 97/64/34 91/116/34 95/117/34
f 115/108/34 127/102/34 65/66/34
f 85/118/34 87/119/34 89/120/34
f 85/118/34 79/121/34 83/122/34
f 79/121/34 81/123/34 83/122/34
f 73/124/34 75/125/34 77/126/34
f 97/64/34 89/120/34 91/116/34
f 71/127/34 73/124/34 65/66/34
f 113/65/34 115/108/34 65/66/34
f 115/108/34 121/103/34 127/102/34
f 113/65/34 97/64/34 101/109/34
f 107/112/34 101/109/34 103/114/34
f 91/116/34 93/128/34 95/117/34
f 89/120/34 79/121/34 85/118/34
f 66/129/34 71/127/34 65/66/34
f 66/129/34 69/130/34 71/127/34
f 73/124/34 77/126/34 79/121/34
f 97/64/34 79/121/34 89/120/34
f 73/124/34 79/121/34 97/64/34
f 107/112/34 111/110/34 101/109/34
f 97/64/34 65/66/34 73/124/34
